<svg width="27" height="15" viewBox="0 0 27 15" fill="none" xmlns="http://www.w3.org/2000/svg">
<path d="M26.9621 1.08335C27.1776 1.66739 26.4747 3.00886 24.8535 5.10777C24.6285 5.39979 24.324 5.78763 23.9397 6.27129C23.5649 6.7367 23.3071 7.06523 23.1666 7.25687C23.026 7.4485 22.8831 7.67437 22.7378 7.93445C22.5926 8.19453 22.5363 8.38617 22.5691 8.50936C22.6019 8.63256 22.6628 8.78998 22.7519 8.98162C22.8409 9.17326 22.9932 9.36946 23.2087 9.57022C23.4243 9.77099 23.6914 10.0128 24.01 10.2957C24.0475 10.314 24.0709 10.3322 24.0803 10.3505C25.4017 11.5459 26.2967 12.5543 26.7653 13.3756C26.7934 13.4213 26.8238 13.4783 26.8566 13.5467C26.8894 13.6152 26.9222 13.7361 26.955 13.9095C26.9878 14.0829 26.9855 14.238 26.948 14.3749C26.9105 14.5118 26.7934 14.6373 26.5966 14.7513C26.3998 14.8654 26.1233 14.9224 25.7672 14.9224L22.1685 14.9772C21.9436 15.0228 21.6812 15 21.3813 14.9087C21.0814 14.8175 20.8377 14.7171 20.6503 14.6076L20.3691 14.4433C20.088 14.2517 19.76 13.9597 19.3851 13.5673C19.0103 13.1749 18.6893 12.8212 18.4222 12.5064C18.1551 12.1916 17.8693 11.9269 17.5647 11.7125C17.2601 11.498 16.9954 11.4273 16.7705 11.5003C16.7423 11.5094 16.7049 11.5254 16.658 11.5482C16.6111 11.571 16.5315 11.6372 16.419 11.7467C16.3066 11.8562 16.2058 11.9908 16.1168 12.1505C16.0278 12.3102 15.9481 12.5475 15.8778 12.8623C15.8075 13.1771 15.7771 13.5308 15.7864 13.9232C15.7864 14.0601 15.77 14.1855 15.7372 14.2996C15.7044 14.4137 15.6693 14.4981 15.6318 14.5528L15.5756 14.6213C15.4069 14.7947 15.1585 14.8951 14.8305 14.9224H13.2139C12.5486 14.9589 11.8644 14.8836 11.1616 14.6966C10.4587 14.5095 9.84251 14.2677 9.31302 13.9711C8.78352 13.6745 8.30088 13.3733 7.86511 13.0676C7.42933 12.7619 7.09898 12.4996 6.87406 12.2805L6.52263 11.952C6.42891 11.8608 6.30005 11.7239 6.13605 11.5414C5.97204 11.3589 5.63701 10.9436 5.13094 10.2957C4.62488 9.64779 4.12818 8.9588 3.64086 8.22875C3.15354 7.4987 2.57953 6.53594 1.91883 5.34047C1.25814 4.14501 0.64664 2.90392 0.0843443 1.6172C0.0281148 1.47119 0 1.34799 0 1.24761C0 1.14723 0.0140574 1.07422 0.0421721 1.02859L0.0984017 0.946463C0.238975 0.773075 0.506066 0.686381 0.899672 0.686381L4.7514 0.659004C4.86385 0.677255 4.97163 0.706914 5.07472 0.747979C5.1778 0.789045 5.25278 0.827829 5.29963 0.864332L5.36992 0.905397C5.51987 1.00578 5.63232 1.15179 5.7073 1.34343C5.89473 1.79971 6.11028 2.27197 6.35394 2.76019C6.5976 3.24841 6.78972 3.62028 6.93029 3.8758L7.15521 4.27277C7.42698 4.82031 7.68939 5.29485 7.94242 5.69638C8.19545 6.09791 8.42272 6.41046 8.6242 6.63404C8.82569 6.85762 9.02015 7.03329 9.20759 7.16105C9.39502 7.28881 9.55433 7.35269 9.68554 7.35269C9.81674 7.35269 9.94325 7.32987 10.0651 7.28424C10.0838 7.27512 10.1073 7.2523 10.1354 7.2158C10.1635 7.1793 10.2197 7.07891 10.3041 6.91465C10.3884 6.75039 10.4517 6.53594 10.4938 6.27129C10.536 6.00665 10.5805 5.63706 10.6274 5.16252C10.6742 4.68799 10.6742 4.11763 10.6274 3.45146C10.6086 3.08643 10.5665 2.75335 10.5009 2.4522C10.4353 2.15105 10.3697 1.94116 10.3041 1.82253L10.2197 1.65827C9.98543 1.34799 9.58713 1.15179 9.02484 1.06966C8.90301 1.05141 8.92644 0.9419 9.09513 0.741135C9.24507 0.567747 9.42313 0.430862 9.62931 0.33048C10.126 0.0932122 11.2459 -0.0162958 12.989 0.0019555C13.7575 0.0110812 14.3901 0.0703981 14.8868 0.179906C15.0742 0.225534 15.2312 0.287133 15.3577 0.364701C15.4842 0.442269 15.5803 0.551777 15.6459 0.693225C15.7115 0.834673 15.7607 0.980684 15.7935 1.13126C15.8263 1.28183 15.8427 1.48944 15.8427 1.75408C15.8427 2.01873 15.838 2.26969 15.8286 2.50695C15.8192 2.74422 15.8075 3.0659 15.7935 3.47199C15.7794 3.87808 15.7724 4.25452 15.7724 4.60129C15.7724 4.70168 15.7677 4.89332 15.7583 5.17621C15.749 5.45911 15.7466 5.67812 15.7513 5.83326C15.756 5.9884 15.7724 6.17319 15.8005 6.38765C15.8286 6.6021 15.8825 6.78005 15.9622 6.9215C16.0418 7.06294 16.1472 7.17473 16.2784 7.25687C16.3534 7.27512 16.4331 7.29337 16.5174 7.31162C16.6018 7.32987 16.7236 7.27968 16.8829 7.16105C17.0422 7.04241 17.2203 6.88499 17.4171 6.68879C17.6139 6.49259 17.8576 6.18688 18.1481 5.77166C18.4386 5.35644 18.7572 4.86594 19.104 4.30015C19.6663 3.35108 20.1677 2.32444 20.6081 1.22023C20.6456 1.12898 20.6925 1.04913 20.7487 0.980684C20.8049 0.912241 20.8565 0.864332 20.9033 0.836955L20.9596 0.795889L21.0298 0.761668L21.2126 0.720602L21.4937 0.713758L25.5423 0.686381C25.9078 0.640753 26.2076 0.65216 26.4419 0.720602C26.6762 0.789045 26.8215 0.864332 26.8777 0.946463L26.9621 1.08335Z" fill="black"/>
</svg>
